<svg width="24" height="24" viewBox="0 0 24 24" fill="none" xmlns="http://www.w3.org/2000/svg">
<g clip-path="url(#clip0_1_1580)">
<path d="M14.5 21.5C14.372 21.5 14.244 21.451 14.146 21.354C13.951 21.159 13.951 20.842 14.146 20.647L22.793 12L14.147 3.35398C13.952 3.15898 13.952 2.84198 14.147 2.64698C14.342 2.45198 14.659 2.45198 14.854 2.64698L23.854 11.647C24.049 11.842 24.049 12.159 23.854 12.354L14.854 21.354C14.756 21.451 14.628 21.5 14.5 21.5Z" fill="#2F70FE"/>
<path d="M23.5 12.5H0.5C0.224 12.5 0 12.276 0 12C0 11.724 0.224 11.5 0.5 11.5H23.5C23.776 11.5 24 11.724 24 12C24 12.276 23.776 12.5 23.5 12.5Z" fill="#2F70FE"/>
</g>
<defs>
<clipPath id="clip0_1_1580">
<rect width="24" height="24" fill="white"/>
</clipPath>
</defs>
</svg>
